{"title":"Away.We.Go.2009.BRRip.XviD-DiN","uid":8311920,"size":1507876040,"categoryP":"video","categoryS":"movies","magnet":"?xt=urn:btih:05e175266d6de4dd5c060bfefc3191b6f1bef776&amp;dn=Away.We.Go.2009.BRRip.XviD-DiN&amp;tr=udp%3A%2F%2Ftracker.openbittorrent.com%3A80&amp;tr=udp%3A%2F%2Fopen.demonii.com%3A1337&amp;tr=udp%3A%2F%2Ftracker.coppersurfer.tk%3A6969&amp;tr=udp%3A%2F%2Fexodus.desync.com%3A6969","seeders":6,"leechers":5,"uploader":"sceneline","files":6,"time":1364496374,"description":"-\n &lt;a href=&quot;\nhttp://www.Speed.&quot; rel=&quot;nofollow&quot; target=&quot;_NEW&quot;&gt;\nhttp://www.Speed.&lt;/a&gt; Cd       the fast  and The Hottest Private Tracker on the net &lt;a href=&quot;\nhttp://www.Speed.&quot; rel=&quot;nofollow&quot; target=&quot;_NEW&quot;&gt;\nhttp://www.Speed.&lt;/a&gt; Cd\n\nPlease Seed back to make the speed Faster!!\n ............ NFO .............\n-\n &lt;a href=&quot;\nhttp://www.Speed.&quot; rel=&quot;nofollow&quot; target=&quot;_NEW&quot;&gt;\nhttp://www.Speed.&lt;/a&gt; Cdhttp://www.imdb.com/title/tt1176740/\n\nGeneral\n\nComplete name                            : Away.We.Go.2009.BRRip.XviD-DiN\n\nFormat                                   : AVI\n\nFormat/Info                              : Audio Video Interleave\n\nFile size                                : 1.40 GiB\n\nDuration                                 : 1h 37mn\n\nOverall bit rate                         : 2 057 Kbps\n\n\n\nVideo\n\nID                                       : 0\n\nFormat                                   : MPEG-4 Visual\n\nFormat profile                           : Advanced Simple@L5\n\nFormat settings, BVOP                    : 2\n\nFormat settings, QPel                    : No\n\nFormat settings, GMC                     : No warppoints\n\nFormat settings, Matrix                  : Default (H.263)\n\nCodec ID                                 : XVID\n\nCodec ID/Hint                            : XviD\n\nDuration                                 : 1h 37mn\n\nBit rate                                 : 1 601 Kbps\n\nWidth                                    : 720 pixels\n\nHeight                                   : 304 pixels\n\nDisplay aspect ratio                     : 2.35:1\n\nFrame rate                               : 23.976 fps\n\nColor space                              : YUV\n\nChroma subsampling                       : 4:2:0\n\nBit depth                                : 8 bits\n\nScan type                                : Progressive\n\nCompression mode                         : Lossy\n\nBits/(Pixel*Frame)                       : 0.305\n\nStream size                              : 1.09 GiB (78%)\n\nWriting library                          : XviD 1.2.1 (UTC 2008-12-04)\n\n\n\nAudio\n\nID                                       : 1\n\nFormat                                   : AC-3\n\nFormat/Info                              : Audio Coding 3\n\nMode extension                           : CM (complete main)\n\nFormat settings, Endianness              : Big\n\nCodec ID                                 : 2000\n\nDuration                                 : 1h 37mn\n\nBit rate mode                            : Constant\n\nBit rate                                 : 448 Kbps\n\nChannel(s)                               : 6 channels\n\nChannel positions                        : Front: L C R, Side: L R, LFE\n\nSampling rate                            : 48.0 KHz\n\nBit depth                                : 16 bits\n\nCompression mode                         : Lossy\n\nStream size                              : 313 MiB (22%)\n\nAlignment                                : Aligned on interleaves\n\nInterleave, duration                     : 64 ms (1.53 video frames)\n\nInterleave, preload duration             : 192 ms","torrent":{"xt":"urn:btih:05e175266d6de4dd5c060bfefc3191b6f1bef776","amp;dn":"Away.We.Go.2009.BRRip.XviD-DiN","amp;tr":["udp%3A%2F%2Ftracker.openbittorrent.com%3A80","udp%3A%2F%2Fopen.demonii.com%3A1337","udp%3A%2F%2Ftracker.coppersurfer.tk%3A6969","udp%3A%2F%2Fexodus.desync.com%3A6969"],"infoHash":"05e175266d6de4dd5c060bfefc3191b6f1bef776","infoHashBuffer":{"type":"Buffer","data":[5,225,117,38,109,109,228,221,92,6,11,254,252,49,145,182,241,190,247,118]},"announce":[],"urlList":[]}}